#!OML:ASF F:\VICON\USERDATA\INSTALL\rory3\rory3.ASF
:FULLY-SPECIFIED
:DEGREES
37
root 0.5542344005913562 18.02448725881826 13.633837127654305 -1.6658838403670904 1.5021747015878133 -1.2211246047224615
lfemur -21.551392948325677 -4.750312997812699 -19.877051578697703
ltibia 14.202611521190114
lfoot 0.4019823843790027 -4.215196783204581
ltoes -4.542357887864006
rfemur -12.42442682711605 -3.391970440186971 26.538569129177816
rtibia 37.83448008041024
rfoot 1.763679086686576 -3.0182390270697947
rtoes 0.9708318774491365
lowerback 9.328438522216638 -0.36881553810567563 3.913976450264204
upperback -0.4628445641661358 0.0762271495578728 1.3429702794295955
thorax -4.784868983913292 -0.06365483779421577 -1.0182611526292662
lowerneck -16.22145493632597 -3.2599838221291124 -1.9859305902720197
upperneck 20.804323314809498 -4.285267387672286 0.92365643257086
head 9.27683408991621 -2.0486817448402257 -0.0025166638718379167
lclavicle 1.4777541330877463e-16 2.3760638323115695e-16
lhumerus -36.74923992771839 10.001486568683871 77.62142055270733
lradius 18.18395215703829
lwrist 4.2533719361286755
lhand -26.74930632645473 22.44021077713317
lfingers 7.12502
lthumb 0.10158306300314757 52.33850158735238
rclavicle 1.4316216453215317e-16 2.3406988641814777e-16
rhumerus -22.047673846607353 -10.845441728012016 -78.69336397799246
rradius 33.29006688722511
rwrist 4.051127916696046
rhand -17.086268116782904 22.681280222777332
rfingers 7.12502
rthumb 8.493585701814267 -7.497107290227885
38
root 0.6551548427810593 18.10110524383082 14.45555394801436 -2.093481747128704 2.595232718792128 -0.36499158285424027
lfemur -18.1361133876879 -4.565770062049516 -21.6070182939388
ltibia 13.05077900324811
lfoot 1.2405441622580868 -5.276216172498787
ltoes -4.923699372281041
rfemur -14.03542319923202 -3.4133137026981304 25.45031008312468
rtibia 36.79288501584574
rfoot 6.020364631850949 -3.771005222404761
rtoes 6.77677894343338
lowerback 9.120747948874566 -0.7813311477868223 3.2177254216856372
upperback -0.48972398470275463 -0.5764054913548722 1.2065550625739072
thorax -4.724939207820533 -0.3896289008381155 -0.5937619025652023
lowerneck -16.047993184158642 -3.2491125039998776 -2.1232944891078955
upperneck 20.963016158456618 -4.254722886803472 0.9928102494356514
head 9.300762630673857 -2.0407030770204866 0.034127990171431935
lclavicle 1.47209419626815e-16 2.371679061526466e-16
lhumerus -36.25151841113643 9.21789921958686 77.53550036281861
lradius 19.232692221909694
lwrist 4.390669228815139
lhand -26.643760180769476 22.109518353630822
lfingers 7.12502
lthumb 0.25179630304824463 52.114615338362725
rclavicle 1.4356753631881572e-16 2.3438166780265617e-16
rhumerus -22.9729266205327 -11.559070734282457 -78.53545444274279
rradius 32.62507196882924
rwrist 5.040633127194638
rhand -16.87677268834527 22.776629867406125
rfingers 7.12502
rthumb 8.64095643735793 -7.050224678946231
39
root 0.7427250712781116 18.15463789318166 15.358907742874052 -1.8503922909864516 2.9670762193667684 0.48143512892780316
lfemur -14.921742185016205 -4.5596382336642245 -23.085684231911735
ltibia 10.963609507612052
lfoot 1.5000044032547661 -6.457318262353443
ltoes -5.955343719311205
rfemur -15.754438503989133 -2.5554359427857465 24.49173292164301
rtibia 35.36162976882597
rfoot 6.99392517391159 -6.01875899499232
rtoes 9.739528885811652
lowerback 8.49345167623064 -0.9455817021282558 2.2991208940811902
upperback -0.6194888194015202 -0.9715440002920952 1.0477837039968825
thorax -4.429918110292203 -0.5509050642935016 -0.0344928652751485
lowerneck -15.926056723280567 -3.2098022958677817 -2.274160411775226
upperneck 21.201114773651508 -4.187042073874835 1.1353287933427245
head 9.363518288934277 -2.015654967128007 0.10481778180723203
lclavicle 1.4609253397591447e-16 2.3631040273380034e-16
lhumerus -35.53176707469051 8.034809859649897 77.62939834646625
lradius 20.73173800247342
lwrist 4.807406236611989
lhand -26.82450343721797 21.971692267071006
lfingers 7.12502
lthumb 0.0874924026533046 51.753134080216554
rclavicle 1.4204537644995928e-16 2.3321126813747146e-16
rhumerus -24.062110816245212 -12.101804185606337 -78.56657128171112
rradius 31.753214886623958
rwrist 5.55764682037975
rhand -16.64974078458808 22.571938227491017
rfingers 7.12502
rthumb 8.776692496215924 -6.541496569669443
40
root 0.7816322246982222 18.202905251848605 16.375242104305723 -1.7925103772624489 3.0923674296776134 1.2219442419964144
lfemur -11.694415142728579 -4.997492541153861 -24.385501542685144
ltibia 9.650024686300021
lfoot 2.6420923240502185 -8.190620972853628
ltoes -6.5439640369894905
rfemur -16.665669621407595 -1.5745279274528894 23.847818825961436
rtibia 33.30355137057025
rfoot 6.3372960327395695 -8.706623297713026
rtoes 11.182867342526798
lowerback 8.446286143489727 -1.1116586097110706 1.4109662551770816
upperback -0.772410389203654 -1.2570539537211045 0.9213644480268787
thorax -4.59060089171837 -0.6715920325436362 0.5238374329948813
lowerneck -15.924785200385703 -3.154904790170062 -2.4223813496614617
upperneck 21.462145279490667 -4.088977011922453 1.1982090060447441
head 9.437029520755743 -1.979276776871721 0.1369837457480652
lclavicle 1.467389336286626e-16 2.3680880993665197e-16
lhumerus -34.49613900564143 6.181120564708691 78.00203471739208
lradius 22.771440825249282
lwrist 5.221314073734416
lhand -26.96649717657012 22.06012274405647
lfingers 7.12502
lthumb -0.15874543087439674 51.76418494140435
rclavicle 1.4189925949627756e-16 2.33098810313009e-16
rhumerus -24.95236204349117 -12.39122573578195 -78.88661524896362
rradius 30.716108107725482
rwrist 5.9598918776089995
rhand -16.41909238120854 22.31001537432819
rfingers 7.12502
rthumb 8.848380361007179 -6.2752545872272725
41
root 0.7986715506179822 18.205799284088165 17.153388229407 -1.676462692533891 3.429057516297776 0.6373374242432541
lfemur -9.427829849819785 -5.489361642613119 -24.326114499598667
ltibia 9.674707021635644
lfoot 4.524071106259751 -10.257305140725034
ltoes -6.664533891274815
rfemur -17.077307356866797 -0.6684082001687086 24.113908145213173
rtibia 31.358799290195357
rfoot 5.447902995112857 -10.475356951101864
rtoes 10.701147584336715
lowerback 8.623033611699812 -1.3980138015976358 1.6794830628440032
upperback -0.8096309936366037 -1.4518575490506866 1.067589637489041
thorax -4.813572630087563 -0.7844573150186296 0.8694741790647983
lowerneck -15.925687388144912 -3.1012776142733998 -2.644139596905844
upperneck 21.58341601825466 -3.994598942468546 1.233578789707305
head 9.472259553775292 -1.94503594294416 0.17234433194934679
lclavicle 1.4633066266892237e-16 2.364923685886829e-16
lhumerus -32.956272582745925 4.206400238075302 78.41839035495263
lradius 24.785774199655265
lwrist 5.01279846145589
lhand -26.93116886568297 21.789759978813336
lfingers 7.12502
lthumb -0.2981369680139063 51.59045826650136
rclavicle 1.419719011567478e-16 2.3315469719141896e-16
rhumerus -25.491571241401285 -12.40737293978359 -79.15543419864481
rradius 29.548779728118866
rwrist 6.466302934579646
rhand -16.349539625282457 22.123509515518663
rfingers 7.12502
rthumb 8.773031249831249 -6.425728843329869
